# xmcd
#
# Track frame offsets:
#	150
#	20872
#	37491
#	55633
#	77025
#	96711
#	117756
#	141956
#	159954
#	179563
#	193276
#	212758
#
# Disc length: 3090 seconds
#
# Revision: 0
# Processed by: cddbd v1.5.2PL0 Copyright (c) Steve Scherf et al.
# Submitted via: dBpowerAMP V4.0
#
DISCID=b60c100c
DTITLE=Jaya - Unleashed
DYEAR=1900
DGENRE=Blues
TTITLE0=Noong Ibigin Kita
TTITLE1=Love Hurts
TTITLE2=Beauty and Madness
TTITLE3=Paulit-ulit
TTITLE4=All That
TTITLE5=Sa Aking Tabi
TTITLE6=It's You I Cannot Do Without
TTITLE7=Umasa Ng Labis
TTITLE8=Maalala Sana Na Limutin Ka
TTITLE9=Kahit Mahal Ka
TTITLE10=Love
TTITLE11=I Can See Clearly
EXTD=
EXTT0=
EXTT1=
EXTT2=
EXTT3=
EXTT4=
EXTT5=
EXTT6=
EXTT7=
EXTT8=
EXTT9=
EXTT10=
EXTT11=
PLAYORDER=
